<svg width="315" height="41" fill="none" xmlns="http://www.w3.org/2000/svg"><path d="M7.363 16.237c-.971 0-1.846-.15-2.625-.451a5.36 5.36 0 01-1.99-1.374c-.547-.616-.97-1.374-1.271-2.277-.301-.916-.452-1.982-.452-3.2 0-1.202.15-2.269.452-3.199.3-.943.724-1.73 1.271-2.358a5.254 5.254 0 011.99-1.456c.779-.329 1.654-.493 2.625-.493 1.326 0 2.42.274 3.281.82.862.534 1.552 1.382 2.072 2.544l-2.687 1.395c-.191-.602-.492-1.08-.902-1.436-.397-.37-.985-.554-1.764-.554-.916 0-1.655.301-2.215.903-.547.587-.82 1.449-.82 2.584v2.297c0 1.135.273 2.003.82 2.604.56.588 1.299.882 2.215.882.765 0 1.374-.205 1.825-.615.465-.424.807-.93 1.025-1.518l2.544 1.477c-.534 1.094-1.238 1.942-2.113 2.543-.861.588-1.955.882-3.281.882zM19.142 16.237c-.793 0-1.503-.13-2.133-.39a4.35 4.35 0 01-1.579-1.128c-.423-.492-.752-1.087-.984-1.784-.232-.697-.349-1.477-.349-2.338s.117-1.64.349-2.338c.232-.697.56-1.285.984-1.764a4.349 4.349 0 011.58-1.128c.628-.26 1.34-.39 2.132-.39.794 0 1.498.13 2.113.39.629.26 1.155.636 1.58 1.128.437.479.772 1.067 1.004 1.764.233.697.349 1.477.349 2.338s-.116 1.64-.349 2.338a5.052 5.052 0 01-1.005 1.784c-.424.492-.95.869-1.58 1.128-.614.26-1.319.39-2.112.39zm0-2.4c.602 0 1.067-.184 1.395-.553.328-.37.492-.896.492-1.58V9.51c0-.684-.164-1.21-.492-1.58-.328-.368-.793-.553-1.395-.553-.601 0-1.066.185-1.394.554-.328.369-.492.895-.492 1.579v2.194c0 .684.164 1.21.492 1.58.328.369.793.553 1.394.553zM32.708 14.186h-.102a3.47 3.47 0 01-.39.78c-.15.245-.349.464-.595.656-.246.191-.54.341-.882.45-.328.11-.71.165-1.148.165-1.108 0-1.949-.362-2.523-1.087-.56-.738-.84-1.791-.84-3.158V5.224h3.035v6.501c0 .656.116 1.162.348 1.518.233.355.63.533 1.19.533.232 0 .465-.034.697-.103.233-.068.438-.164.616-.287.177-.136.32-.3.43-.492a1.34 1.34 0 00.164-.677V5.224h3.036V15.99h-3.036v-1.805zM38.568 15.99V5.225h3.035v1.825h.123a3.302 3.302 0 011.005-1.456c.479-.41 1.142-.615 1.99-.615 1.107 0 1.941.369 2.502 1.107.574.738.861 1.791.861 3.158v6.748h-3.035V9.49c0-.698-.11-1.21-.328-1.539-.22-.341-.609-.512-1.17-.512a2.53 2.53 0 00-.717.102c-.233.055-.445.15-.636.287a1.57 1.57 0 00-.43.513 1.34 1.34 0 00-.165.677v6.973h-3.035zM54.559 15.99c-1.053 0-1.853-.266-2.4-.799-.533-.533-.8-1.313-.8-2.338v-5.27h-1.517v-2.36h.759c.41 0 .69-.095.84-.287.15-.205.226-.492.226-.86V2.31h2.728v2.913h2.133v2.358h-2.133v6.05h1.969v2.359h-1.805zM58.636 15.99V5.225h3.036v2.338h.102c.055-.301.15-.588.287-.862.137-.287.315-.54.533-.759.233-.218.506-.39.82-.512.315-.137.684-.205 1.108-.205h.534v2.83h-.76c-.888 0-1.551.116-1.989.349-.424.232-.635.663-.635 1.292v6.296h-3.036zM68.446 4.075c-.616 0-1.067-.137-1.354-.41-.273-.287-.41-.65-.41-1.087v-.451c0-.438.137-.793.41-1.067.287-.287.738-.43 1.354-.43.615 0 1.06.143 1.333.43.287.274.43.63.43 1.067v.45c0 .438-.143.8-.43 1.088-.274.273-.718.41-1.333.41zm-1.518 1.149h3.035V15.99h-3.035V5.224zM77.288 16.237c-.82 0-1.552-.13-2.195-.39a4.812 4.812 0 01-1.64-1.128 5.05 5.05 0 01-1.005-1.784c-.22-.697-.328-1.477-.328-2.338 0-.848.109-1.613.328-2.297.219-.697.54-1.292.964-1.784a4.31 4.31 0 011.6-1.128c.628-.274 1.346-.41 2.153-.41.888 0 1.647.15 2.276.45.643.301 1.162.705 1.559 1.21a4.66 4.66 0 01.882 1.765c.191.656.287 1.346.287 2.07v.903h-6.912v.164c0 .711.192 1.279.575 1.703.383.41.984.615 1.805.615.629 0 1.141-.123 1.538-.37.396-.259.765-.567 1.107-.922l1.518 1.887c-.479.56-1.108.998-1.887 1.312-.766.315-1.64.472-2.625.472zm-.062-9.024c-.615 0-1.1.205-1.456.615-.342.397-.513.93-.513 1.6v.164h3.774v-.185c0-.656-.15-1.182-.451-1.579-.287-.41-.738-.615-1.354-.615zM87.963 16.237c-1.039 0-1.914-.164-2.625-.492a6.206 6.206 0 01-1.907-1.436l1.784-1.805c.383.424.807.76 1.272 1.005.465.246.99.37 1.579.37.602 0 1.019-.09 1.25-.267a.934.934 0 00.35-.759c0-.506-.363-.807-1.087-.902l-1.17-.144c-2.42-.3-3.63-1.408-3.63-3.322 0-.52.096-.992.288-1.416.205-.437.485-.806.84-1.107a3.81 3.81 0 011.313-.718c.52-.178 1.1-.266 1.743-.266.56 0 1.053.04 1.477.123.438.068.82.177 1.148.328.342.136.65.314.923.533.288.205.568.437.841.697L90.61 8.444a3.787 3.787 0 00-1.169-.8 2.98 2.98 0 00-1.313-.308c-.52 0-.888.082-1.107.246a.78.78 0 00-.328.656c0 .288.075.513.225.677.164.15.465.26.903.328l1.21.164c2.365.315 3.548 1.395 3.548 3.24 0 .52-.11.999-.328 1.437-.219.437-.534.82-.944 1.148-.396.315-.882.56-1.456.738a6.23 6.23 0 01-1.887.267zM101.012 4.075c-.615 0-1.067-.137-1.354-.41-.273-.287-.41-.65-.41-1.087v-.451c0-.438.137-.793.41-1.067.287-.287.739-.43 1.354-.43.615 0 1.06.143 1.333.43.287.274.431.63.431 1.067v.45c0 .438-.144.8-.431 1.088-.273.273-.718.41-1.333.41zm-1.518 1.149h3.036V15.99h-3.036V5.224zM105.363 15.99V5.225h3.035v1.825h.123a3.296 3.296 0 011.005-1.456c.478-.41 1.142-.615 1.989-.615 1.108 0 1.942.369 2.502 1.107.575.738.862 1.791.862 3.158v6.748h-3.036V9.49c0-.698-.109-1.21-.328-1.539-.218-.341-.608-.512-1.169-.512-.246 0-.485.034-.718.102-.232.055-.444.15-.635.287a1.563 1.563 0 00-.431.513 1.345 1.345 0 00-.164.677v6.973h-3.035zM126.2 15.99c-1.052 0-1.852-.266-2.399-.799-.533-.533-.8-1.313-.8-2.338v-5.27h-1.518v-2.36h.759c.41 0 .691-.095.841-.287.15-.205.226-.492.226-.86V2.31h2.727v2.913h2.133v2.358h-2.133v6.05h1.969v2.359H126.2zM130.278.814h3.035V7.05h.123a3.312 3.312 0 011.005-1.456c.479-.41 1.142-.615 1.99-.615 1.107 0 1.941.369 2.502 1.107.574.738.861 1.791.861 3.158v6.748h-3.035V9.49c0-.698-.11-1.21-.328-1.539-.219-.341-.609-.512-1.169-.512-.247 0-.486.034-.718.102a1.78 1.78 0 00-.636.287 1.575 1.575 0 00-.431.513 1.345 1.345 0 00-.164.677v6.973h-3.035V.814zM146.987 16.237c-.821 0-1.552-.13-2.195-.39a4.813 4.813 0 01-1.64-1.128 5.039 5.039 0 01-1.005-1.784c-.219-.697-.329-1.477-.329-2.338 0-.848.11-1.613.329-2.297a4.98 4.98 0 01.963-1.784 4.314 4.314 0 011.6-1.128c.629-.274 1.347-.41 2.154-.41.888 0 1.647.15 2.276.45.643.301 1.162.705 1.559 1.21.41.507.704 1.095.882 1.765.191.656.287 1.346.287 2.07v.903h-6.912v.164c0 .711.192 1.279.575 1.703.382.41.984.615 1.804.615.629 0 1.142-.123 1.539-.37.396-.259.765-.567 1.107-.922l1.518 1.887c-.479.56-1.108.998-1.887 1.312-.766.315-1.641.472-2.625.472zm-.062-9.024c-.615 0-1.1.205-1.456.615-.342.397-.513.93-.513 1.6v.164h3.774v-.185c0-.656-.15-1.182-.451-1.579-.287-.41-.739-.615-1.354-.615zM.39 25.224h2.932l1.046 4.348.739 3.281h.082l.861-3.282 1.23-4.347h2.77l1.25 4.348.882 3.281h.082l.739-3.282 1.046-4.347h2.81L13.884 35.99h-3.18l-1.312-4.553-.759-2.79h-.061l-.739 2.79-1.312 4.553H3.404L.39 25.224zM22.828 36.237c-.793 0-1.504-.13-2.133-.39a4.347 4.347 0 01-1.58-1.128c-.423-.492-.751-1.087-.984-1.784-.232-.697-.349-1.477-.349-2.338s.117-1.64.35-2.338c.232-.697.56-1.285.984-1.764a4.347 4.347 0 011.579-1.128c.629-.26 1.34-.39 2.133-.39.793 0 1.497.13 2.112.39a4.13 4.13 0 011.58 1.128c.437.479.772 1.067 1.004 1.764.233.697.349 1.477.349 2.338s-.116 1.64-.349 2.338a5.052 5.052 0 01-1.005 1.784 4.13 4.13 0 01-1.579 1.128c-.615.26-1.32.39-2.112.39zm0-2.4c.601 0 1.066-.184 1.394-.553.328-.37.493-.896.493-1.58V29.51c0-.684-.165-1.21-.493-1.58-.328-.368-.793-.553-1.394-.553-.602 0-1.067.185-1.395.554-.328.369-.492.895-.492 1.579v2.194c0 .684.164 1.21.492 1.58.328.369.793.553 1.395.553zM30.036 35.99V25.225h3.035v2.338h.103c.054-.301.15-.588.287-.862.136-.287.314-.54.533-.759.232-.218.506-.39.82-.512.315-.137.684-.205 1.108-.205h.533v2.83h-.759c-.889 0-1.552.116-1.99.349-.423.232-.635.663-.635 1.292v6.296h-3.035zM41.342 35.99c-1.039 0-1.804-.252-2.297-.758-.478-.506-.718-1.237-.718-2.194V20.814h3.036v12.818h1.353v2.359h-1.374zM51.14 34.186h-.102c-.082.287-.212.56-.39.82a2.988 2.988 0 01-.656.657 2.79 2.79 0 01-.862.41c-.314.11-.642.164-.984.164-1.367 0-2.4-.479-3.097-1.436-.697-.97-1.046-2.372-1.046-4.204 0-1.832.349-3.227 1.046-4.184.697-.957 1.73-1.436 3.097-1.436.697 0 1.313.192 1.846.575.547.383.895.875 1.046 1.476h.102v-6.214h3.035v15.177H51.14v-1.805zm-1.99-.41c.575 0 1.047-.137 1.416-.41.383-.287.574-.677.574-1.17v-3.178c0-.492-.191-.875-.574-1.149-.37-.287-.84-.43-1.415-.43-.574 0-1.053.205-1.436.615-.369.396-.554.937-.554 1.62v1.866c0 .684.185 1.231.554 1.641.383.397.862.595 1.436.595zM61.86 20.814h3.036v6.214H65c.15-.601.492-1.093 1.025-1.476a3.175 3.175 0 011.867-.575c1.367 0 2.4.48 3.096 1.436.698.957 1.046 2.352 1.046 4.184 0 1.832-.348 3.234-1.046 4.204-.697.957-1.73 1.436-3.096 1.436-.356 0-.691-.055-1.005-.164a3.125 3.125 0 01-.862-.41 3.21 3.21 0 01-.636-.656 2.822 2.822 0 01-.39-.82h-.102v1.804h-3.035V20.814zm5.026 12.962c.574 0 1.046-.198 1.415-.595.382-.41.574-.957.574-1.64v-1.867c0-.683-.192-1.224-.574-1.62-.37-.41-.841-.615-1.415-.615-.575 0-1.053.143-1.436.43-.37.274-.554.657-.554 1.149v3.179c0 .492.185.882.554 1.169.383.273.861.41 1.436.41zM80.722 25.224h2.83l-4.143 12.428c-.273.834-.663 1.45-1.169 1.846-.492.396-1.203.595-2.133.595H74.22v-2.359h2.03l.37-1.19-3.774-11.32h3.015l1.58 5.024.779 3.118h.123l.8-3.118 1.579-5.024zM89.94 25.224h3.036v1.804h.103c.15-.601.492-1.093 1.025-1.476a3.175 3.175 0 011.866-.575c1.368 0 2.4.48 3.097 1.436.698.957 1.046 2.352 1.046 4.184 0 1.832-.349 3.234-1.046 4.204-.697.957-1.73 1.436-3.097 1.436-.355 0-.69-.055-1.005-.164a3.125 3.125 0 01-.861-.41 3.21 3.21 0 01-.636-.656 2.819 2.819 0 01-.39-.82h-.102v5.906h-3.035v-14.87zm5.025 8.552c.575 0 1.046-.198 1.415-.595.383-.41.575-.957.575-1.64v-1.867c0-.683-.192-1.224-.575-1.62-.369-.41-.84-.615-1.415-.615-.574 0-1.052.143-1.435.43-.37.274-.554.657-.554 1.149v3.179c0 .492.185.882.554 1.169.383.273.861.41 1.435.41zM106.787 36.237c-.793 0-1.504-.13-2.133-.39a4.345 4.345 0 01-1.579-1.128c-.424-.492-.752-1.087-.985-1.784-.232-.697-.348-1.477-.348-2.338s.116-1.64.348-2.338c.233-.697.561-1.285.985-1.764a4.345 4.345 0 011.579-1.128c.629-.26 1.34-.39 2.133-.39.793 0 1.497.13 2.112.39.629.26 1.156.636 1.579 1.128.438.479.773 1.067 1.005 1.764.233.697.349 1.477.349 2.338s-.116 1.64-.349 2.338a5.039 5.039 0 01-1.005 1.784c-.423.492-.95.868-1.579 1.128-.615.26-1.319.39-2.112.39zm0-2.4c.601 0 1.066-.184 1.394-.553.329-.37.493-.896.493-1.58V29.51c0-.684-.164-1.21-.493-1.58-.328-.368-.793-.553-1.394-.553-.602 0-1.067.185-1.395.554-.328.369-.492.895-.492 1.579v2.194c0 .684.164 1.21.492 1.58.328.369.793.553 1.395.553zM113.995 25.224h3.035v1.804h.103c.15-.601.492-1.093 1.025-1.476a3.175 3.175 0 011.866-.575c1.368 0 2.4.48 3.097 1.436.698.957 1.046 2.352 1.046 4.184 0 1.832-.348 3.234-1.046 4.204-.697.957-1.729 1.436-3.097 1.436-.355 0-.69-.055-1.004-.164a3.125 3.125 0 01-.862-.41 3.22 3.22 0 01-.636-.656 2.835 2.835 0 01-.389-.82h-.103v5.906h-3.035v-14.87zm5.025 8.552c.574 0 1.045-.198 1.415-.595.382-.41.574-.957.574-1.64v-1.867c0-.683-.192-1.224-.574-1.62-.37-.41-.841-.615-1.415-.615-.575 0-1.053.143-1.436.43-.369.274-.554.657-.554 1.149v3.179c0 .492.185.882.554 1.169.383.273.861.41 1.436.41zM132.83 34.186h-.102a3.48 3.48 0 01-.39.78c-.15.245-.349.464-.595.656-.246.191-.54.342-.882.45-.328.11-.711.165-1.148.165-1.108 0-1.948-.362-2.523-1.087-.56-.738-.841-1.791-.841-3.158v-6.768h3.036v6.501c0 .656.116 1.162.348 1.518.233.355.629.533 1.19.533.232 0 .465-.034.697-.103.233-.068.438-.164.616-.287.177-.137.321-.3.43-.492.11-.191.164-.417.164-.677v-6.993h3.036V35.99h-3.036v-1.805zM141.705 35.99c-1.039 0-1.805-.252-2.297-.758-.479-.506-.718-1.237-.718-2.194V20.814h3.035v12.818h1.354v2.359h-1.374zM152.856 35.99c-.547 0-1.005-.17-1.374-.512-.355-.342-.581-.8-.677-1.374h-.123c-.164.697-.526 1.23-1.087 1.6-.56.355-1.251.533-2.071.533-1.08 0-1.908-.287-2.482-.861-.574-.575-.861-1.334-.861-2.277 0-1.135.41-1.976 1.23-2.522.834-.561 1.962-.841 3.384-.841h1.703v-.677c0-.52-.137-.93-.411-1.23-.273-.315-.731-.472-1.374-.472-.601 0-1.08.13-1.435.39-.356.259-.65.553-.882.881l-1.805-1.6a4.64 4.64 0 011.641-1.497c.67-.369 1.572-.553 2.707-.553 1.531 0 2.68.334 3.445 1.005.766.67 1.149 1.647 1.149 2.932v4.717h1.005v2.359h-1.682zm-4.204-1.865c.506 0 .936-.11 1.292-.329.369-.218.554-.574.554-1.066v-1.272h-1.477c-1.19 0-1.784.404-1.784 1.21v.308c0 .397.123.69.369.882.246.178.595.267 1.046.267zM160.229 35.99c-1.053 0-1.853-.266-2.4-.799-.533-.533-.8-1.313-.8-2.338v-5.27h-1.517v-2.36h.758c.411 0 .691-.095.841-.287.151-.205.226-.492.226-.86V22.31h2.728v2.913h2.133v2.358h-2.133v6.05h1.968v2.359h-1.804zM165.824 24.075c-.615 0-1.067-.137-1.354-.41-.273-.287-.41-.65-.41-1.087v-.451c0-.438.137-.793.41-1.067.287-.287.739-.43 1.354-.43.615 0 1.059.143 1.333.43.287.274.431.63.431 1.067v.45c0 .438-.144.8-.431 1.088-.274.273-.718.41-1.333.41zm-1.518 1.149h3.036V35.99h-3.036V25.224zM174.543 36.237c-.793 0-1.504-.13-2.133-.39a4.345 4.345 0 01-1.579-1.128c-.424-.492-.752-1.087-.985-1.784-.232-.697-.348-1.477-.348-2.338s.116-1.64.348-2.338c.233-.697.561-1.285.985-1.764a4.345 4.345 0 011.579-1.128c.629-.26 1.34-.39 2.133-.39.793 0 1.497.13 2.112.39.629.26 1.156.636 1.58 1.128.437.479.772 1.067 1.005 1.764.232.697.348 1.477.348 2.338s-.116 1.64-.348 2.338a5.07 5.07 0 01-1.005 1.784 4.133 4.133 0 01-1.58 1.128c-.615.26-1.319.39-2.112.39zm0-2.4c.602 0 1.066-.184 1.395-.553.328-.37.492-.896.492-1.58V29.51c0-.684-.164-1.21-.492-1.58-.329-.368-.793-.553-1.395-.553s-1.067.185-1.395.554c-.328.369-.492.895-.492 1.579v2.194c0 .684.164 1.21.492 1.58.328.369.793.553 1.395.553zM181.751 35.99V25.225h3.035v1.825h.123a3.312 3.312 0 011.005-1.456c.479-.41 1.142-.616 1.99-.616 1.107 0 1.941.37 2.502 1.108.574.738.861 1.791.861 3.158v6.748h-3.035v-6.502c0-.697-.11-1.21-.328-1.538-.219-.341-.609-.512-1.169-.512-.247 0-.486.034-.718.102a1.78 1.78 0 00-.636.287 1.575 1.575 0 00-.431.513 1.345 1.345 0 00-.164.677v6.973h-3.035zM228.852 36h-23.218v-6.439l10.105-8.648a43.465 43.465 0 002.303-2.115c.626-.658 1.128-1.285 1.504-1.88.407-.627.689-1.238.846-1.833a6.367 6.367 0 00.282-1.927V12.5c0-.627-.126-1.175-.376-1.645a3.605 3.605 0 00-.987-1.175 4.27 4.27 0 00-1.41-.705 5.176 5.176 0 00-1.551-.235c-.784 0-1.473.125-2.068.376a4.949 4.949 0 00-1.504 1.034 5.534 5.534 0 00-1.034 1.457 7.65 7.65 0 00-.658 1.739l-6.157-2.35A13.697 13.697 0 01206.48 7.8a10.466 10.466 0 012.444-2.679c1.002-.783 2.177-1.394 3.525-1.833 1.347-.439 2.867-.658 4.559-.658 1.786 0 3.368.25 4.747.752 1.378.501 2.538 1.19 3.478 2.068a8.585 8.585 0 012.209 3.149c.501 1.19.752 2.491.752 3.901 0 1.41-.235 2.695-.705 3.854a13.52 13.52 0 01-1.927 3.29 19.88 19.88 0 01-2.773 2.867 177.785 177.785 0 01-3.337 2.773l-6.11 4.794h15.51V36zM245.236 36.564c-4.292 0-7.473-1.488-9.541-4.465-2.068-2.977-3.102-7.144-3.102-12.502 0-5.358 1.034-9.525 3.102-12.502 2.068-2.977 5.249-4.465 9.541-4.465 4.293 0 7.473 1.488 9.541 4.465 2.068 2.977 3.102 7.144 3.102 12.502 0 5.358-1.034 9.525-3.102 12.502-2.068 2.977-5.248 4.465-9.541 4.465zm0-5.969c1.88 0 3.181-.69 3.901-2.068.721-1.379 1.081-3.321 1.081-5.828v-6.204c0-2.507-.36-4.45-1.081-5.828-.72-1.379-2.021-2.068-3.901-2.068s-3.18.69-3.901 2.068c-.72 1.379-1.081 3.321-1.081 5.828v6.204c0 2.507.361 4.45 1.081 5.828.721 1.379 2.021 2.068 3.901 2.068zM285.215 36h-23.218v-6.439l10.105-8.648a43.465 43.465 0 002.303-2.115c.626-.658 1.128-1.285 1.504-1.88.407-.627.689-1.238.846-1.833a6.367 6.367 0 00.282-1.927V12.5c0-.627-.126-1.175-.376-1.645a3.605 3.605 0 00-.987-1.175 4.27 4.27 0 00-1.41-.705 5.176 5.176 0 00-1.551-.235c-.784 0-1.473.125-2.068.376a4.949 4.949 0 00-1.504 1.034 5.534 5.534 0 00-1.034 1.457 7.65 7.65 0 00-.658 1.739l-6.157-2.35a13.697 13.697 0 011.551-3.196 10.466 10.466 0 012.444-2.679c1.002-.783 2.177-1.394 3.525-1.833 1.347-.439 2.867-.658 4.559-.658 1.786 0 3.368.25 4.747.752 1.378.501 2.538 1.19 3.478 2.068a8.585 8.585 0 012.209 3.149c.501 1.19.752 2.491.752 3.901 0 1.41-.235 2.695-.705 3.854a13.52 13.52 0 01-1.927 3.29 19.88 19.88 0 01-2.773 2.867 177.785 177.785 0 01-3.337 2.773l-6.11 4.794h15.51V36zM301.599 36.564c-4.292 0-7.473-1.488-9.541-4.465-2.068-2.977-3.102-7.144-3.102-12.502 0-5.358 1.034-9.525 3.102-12.502 2.068-2.977 5.249-4.465 9.541-4.465 4.293 0 7.473 1.488 9.541 4.465 2.068 2.977 3.102 7.144 3.102 12.502 0 5.358-1.034 9.525-3.102 12.502-2.068 2.977-5.248 4.465-9.541 4.465zm0-5.969c1.88 0 3.181-.69 3.901-2.068.721-1.379 1.081-3.321 1.081-5.828v-6.204c0-2.507-.36-4.45-1.081-5.828-.72-1.379-2.021-2.068-3.901-2.068s-3.18.69-3.901 2.068c-.72 1.379-1.081 3.321-1.081 5.828v6.204c0 2.507.361 4.45 1.081 5.828.721 1.379 2.021 2.068 3.901 2.068z" fill="#fff"/><path stroke="#fff" stroke-width="1.068" d="M197.614.875v37.92"/></svg>